<svg width="23" height="21" viewBox="0 0 23 21" fill="none" xmlns="http://www.w3.org/2000/svg">
<path d="M20.625 12.2578C20.5208 12.7526 20.2214 13 19.7266 13H8.28125L8.51562 14.25H19.0234C19.3099 14.25 19.5443 14.3672 19.7266 14.6016C19.9089 14.8359 19.974 15.0964 19.9219 15.3828L19.6875 16.3594C20.5208 16.75 20.9375 17.401 20.9375 18.3125C20.9375 18.9115 20.7161 19.4193 20.2734 19.8359C19.8568 20.2786 19.349 20.5 18.75 20.5C18.151 20.5 17.6302 20.2786 17.1875 19.8359C16.7708 19.4193 16.5625 18.9115 16.5625 18.3125C16.5625 17.6875 16.7839 17.1667 17.2266 16.75H9.02344C9.46615 17.1667 9.6875 17.6875 9.6875 18.3125C9.6875 18.9115 9.46615 19.4193 9.02344 19.8359C8.60677 20.2786 8.09896 20.5 7.5 20.5C6.90104 20.5 6.38021 20.2786 5.9375 19.8359C5.52083 19.4193 5.3125 18.9115 5.3125 18.3125C5.3125 17.4792 5.67708 16.8411 6.40625 16.3984L3.67188 3H0.9375C0.677083 3 0.455729 2.90885 0.273438 2.72656C0.0911458 2.54427 0 2.32292 0 2.0625V1.4375C0 1.17708 0.0911458 0.955729 0.273438 0.773438C0.455729 0.591146 0.677083 0.5 0.9375 0.5H4.96094C5.16927 0.5 5.35156 0.578125 5.50781 0.734375C5.6901 0.864583 5.80729 1.03385 5.85938 1.24219L6.21094 3H21.5625C21.875 3 22.1224 3.11719 22.3047 3.35156C22.487 3.58594 22.5391 3.84635 22.4609 4.13281L20.625 12.2578Z" fill="#FC3B00"/>
</svg>
