<svg width="34" height="31" viewBox="0 0 34 31" fill="none" xmlns="http://www.w3.org/2000/svg">
<path d="M30.9375 18.3867C30.7812 19.1289 30.332 19.5 29.5898 19.5H12.4219L12.7734 21.375H28.5352C28.9648 21.375 29.3164 21.5508 29.5898 21.9023C29.8633 22.2539 29.9609 22.6445 29.8828 23.0742L29.5312 24.5391C30.7812 25.125 31.4062 26.1016 31.4062 27.4688C31.4062 28.3672 31.0742 29.1289 30.4102 29.7539C29.7852 30.418 29.0234 30.75 28.125 30.75C27.2266 30.75 26.4453 30.418 25.7812 29.7539C25.1562 29.1289 24.8438 28.3672 24.8438 27.4688C24.8438 26.5312 25.1758 25.75 25.8398 25.125H13.5352C14.1992 25.75 14.5312 26.5312 14.5312 27.4688C14.5312 28.3672 14.1992 29.1289 13.5352 29.7539C12.9102 30.418 12.1484 30.75 11.25 30.75C10.3516 30.75 9.57031 30.418 8.90625 29.7539C8.28125 29.1289 7.96875 28.3672 7.96875 27.4688C7.96875 26.2188 8.51562 25.2617 9.60938 24.5977L5.50781 4.5H1.40625C1.01562 4.5 0.683594 4.36328 0.410156 4.08984C0.136719 3.81641 0 3.48438 0 3.09375V2.15625C0 1.76562 0.136719 1.43359 0.410156 1.16016C0.683594 0.886719 1.01562 0.75 1.40625 0.75H7.44141C7.75391 0.75 8.02734 0.867188 8.26172 1.10156C8.53516 1.29688 8.71094 1.55078 8.78906 1.86328L9.31641 4.5H32.3438C32.8125 4.5 33.1836 4.67578 33.457 5.02734C33.7305 5.37891 33.8086 5.76953 33.6914 6.19922L30.9375 18.3867Z" fill="white"/>
</svg>
