<svg width="23" height="14" viewBox="0 0 23 14" fill="none" xmlns="http://www.w3.org/2000/svg">
<path fill-rule="evenodd" clip-rule="evenodd" d="M22.4722 0.947987C22.6321 0.401536 22.4722 0 21.7113 0H19.1951C18.5553 0 18.2603 0.346869 18.1004 0.729362C18.1004 0.729362 16.8208 3.92607 15.0081 6.00254C14.4217 6.60361 14.1551 6.79486 13.8352 6.79486C13.6752 6.79486 13.4437 6.60361 13.4437 6.0572V0.947987C13.4437 0.292246 13.258 0 12.7248 0H8.77079C8.37098 0 8.13053 0.304344 8.13053 0.592783C8.13053 1.21441 9.03683 1.35777 9.13025 3.10641V6.90419C9.13025 7.73684 8.98354 7.8878 8.66364 7.8878C7.81064 7.8878 5.73569 4.67682 4.50506 1.00261C4.26389 0.288472 4.02199 0 3.37892 0H0.862709C0.143792 0 0 0.346869 0 0.729362C0 1.41244 0.853052 4.80039 3.97195 9.2812C6.05119 12.3412 8.98072 14 11.6465 14C13.2459 14 13.4438 13.6316 13.4438 12.997V10.6842C13.4438 9.94737 13.5953 9.80032 14.1018 9.80032C14.475 9.80032 15.1147 9.99156 16.6076 11.467C18.3136 13.2156 18.5949 14 19.5545 14H22.0708C22.7897 14 23.1491 13.6316 22.9418 12.9045C22.7148 12.1799 21.9003 11.1286 20.8195 9.88227C20.233 9.17191 19.3533 8.40692 19.0867 8.02434C18.7135 7.5326 18.8201 7.31397 19.0867 6.87686C19.0867 6.87686 22.1523 2.45067 22.4722 0.947987Z" fill="#3A3A3A"/>
</svg>
