<svg width="15" height="15" viewBox="0 0 15 15" fill="none" xmlns="http://www.w3.org/2000/svg">
<path d="M12.8367 6.04573e-06H2.16843C1.88391 -0.000666581 1.60205 0.0547928 1.33899 0.163208C1.07594 0.271624 0.836851 0.430866 0.635427 0.631815C0.434003 0.832764 0.274197 1.07147 0.16516 1.33427C0.056124 1.59707 -7.9506e-07 1.8788 0 2.16332V12.8367C0 13.4104 0.22792 13.9607 0.63362 14.3664C1.03932 14.7721 1.58957 15 2.16331 15H12.8367C13.4104 15 13.9607 14.7721 14.3664 14.3664C14.7721 13.9607 15 13.4104 15 12.8367V2.16332C15 1.58957 14.7721 1.03933 14.3664 0.633626C13.9607 0.227926 13.4104 6.04573e-06 12.8367 6.04573e-06V6.04573e-06ZM7.50256 10.1671C6.97456 10.1671 6.45841 10.0105 6.01939 9.71715C5.58038 9.42381 5.23821 9.00687 5.03615 8.51906C4.83409 8.03126 4.78122 7.49448 4.88423 6.97663C4.98724 6.45877 5.2415 5.98309 5.61485 5.60974C5.9882 5.23639 6.46388 4.98213 6.98174 4.87912C7.4996 4.77611 8.03637 4.82898 8.52418 5.03104C9.01199 5.23309 9.42892 5.57527 9.72227 6.01428C10.0156 6.4533 10.1722 6.96944 10.1722 7.49745C10.1722 8.20547 9.89092 8.8845 9.39026 9.38515C8.88961 9.8858 8.21058 10.1671 7.50256 10.1671V10.1671ZM13.0515 2.83328C12.8839 2.83325 12.7202 2.78335 12.5811 2.68993C12.442 2.59651 12.3339 2.46381 12.2705 2.30872C12.2071 2.15363 12.1913 1.98318 12.2251 1.81908C12.259 1.65499 12.3409 1.50468 12.4604 1.3873C12.58 1.26992 12.7318 1.19078 12.8965 1.15998C13.0612 1.12917 13.2313 1.14809 13.3852 1.21431C13.5391 1.28054 13.6698 1.39108 13.7606 1.53186C13.8515 1.67263 13.8984 1.83726 13.8953 2.00478C13.8913 2.22591 13.8006 2.43662 13.6428 2.59157C13.485 2.74652 13.2727 2.83332 13.0515 2.83328V2.83328Z" fill="#3A3A3A"/>
</svg>
