<svg width="26" height="16" viewBox="0 0 26 16" fill="none" xmlns="http://www.w3.org/2000/svg">
<path d="M22 15.5C22.3 15.5 22.5 15.3 22.5 15V1.5H21.5V14.5H19.5V5C19.5 4.7 19.3 4.5 19 4.5H7C6.7 4.5 6.5 4.7 6.5 5V14.5H4.5V1.5H3.5V15C3.5 15.3 3.7 15.5 4 15.5H7.5V14.6V5.5H18.5V14.6V15.5H22Z" fill="#3A3A3A"/>
<path d="M6.5 15.2V14.8C6.5 14.6 6.6 14.5 6.8 14.5H18.2C18.4 14.5 18.5 14.6 18.5 14.8V15.2C18.5 15.4 18.4 15.5 18.2 15.5H6.8C6.6 15.5 6.5 15.4 6.5 15.2Z" fill="#3A3A3A"/>
<path d="M6.5 7.2V6.8C6.5 6.6 6.6 6.5 6.8 6.5H18.2C18.4 6.5 18.5 6.6 18.5 6.8V7.2C18.5 7.4 18.4 7.5 18.2 7.5H6.8C6.6 7.5 6.5 7.4 6.5 7.2Z" fill="#3A3A3A"/>
<path d="M6.5 10.2V9.8C6.5 9.6 6.6 9.5 6.8 9.5H18.2C18.4 9.5 18.5 9.6 18.5 9.8V10.2C18.5 10.4 18.4 10.5 18.2 10.5H6.8C6.6 10.5 6.5 10.4 6.5 10.2Z" fill="#3A3A3A"/>
<path d="M6.5 13.2V12.8C6.5 12.6 6.6 12.5 6.8 12.5H18.2C18.4 12.5 18.5 12.6 18.5 12.8V13.2C18.5 13.4 18.4 13.5 18.2 13.5H6.8C6.6 13.5 6.5 13.4 6.5 13.2Z" fill="#3A3A3A"/>
<path d="M1 1H25" stroke="#3A3A3A" stroke-miterlimit="10" stroke-linecap="round"/>
</svg>
