<svg width="133" height="32" viewBox="0 0 133 32" fill="none" xmlns="http://www.w3.org/2000/svg">
<path fill-rule="evenodd" clip-rule="evenodd" d="M67.3295 16.8052C67.3295 14.0282 67.2227 10.7172 67.2227 7.94018H67.6499C67.6499 7.94018 76.6218 7.83337 81.2145 7.72656C82.1758 7.72656 83.0302 7.83337 83.8847 8.15379C84.9528 8.58103 85.8072 9.22187 86.2345 10.29C86.6617 11.1444 86.7685 11.9989 86.6617 12.8533C86.5549 13.9214 86.0209 14.8827 85.2732 15.5235C84.7392 15.9508 83.5643 16.4848 83.2439 16.5916C83.4575 16.5916 85.1664 17.0189 86.0209 17.7665C86.6617 18.4074 87.0889 19.155 87.3026 20.0095C87.4094 20.7571 87.4094 21.5048 87.1958 22.2524C86.9821 23.2137 86.3413 24.0682 85.4868 24.6022C84.6324 25.1363 83.6711 25.3499 82.603 25.4567C82.3894 25.4567 82.1758 25.4567 81.8554 25.4567C77.1558 25.5635 72.4562 25.5635 67.7567 25.6703C67.2227 25.6703 67.3295 25.6703 67.3295 25.2431C67.4363 22.4661 67.3295 19.6891 67.3295 16.8052ZM73.9516 18.5142C73.9516 19.155 73.9516 21.398 73.9516 21.398L78.8647 21.2912C79.0783 21.2912 79.292 21.2912 79.5056 21.1844C80.0396 21.0776 80.4668 20.6503 80.4668 20.1163C80.5737 19.3686 80.2532 18.9414 79.7192 18.621C79.5056 18.5142 79.1852 18.4074 78.8647 18.4074C78.2239 18.4074 74.0584 18.5142 73.9516 18.5142ZM73.8448 12.1057C73.8448 12.8533 73.8448 14.9895 73.8448 14.9895L78.3307 14.8827C78.6511 14.8827 78.8647 14.8827 79.0783 14.7759C79.7192 14.5623 80.1464 14.135 80.0396 13.3874C80.0396 12.7465 79.6124 12.3193 79.0783 12.1057C78.8647 11.9989 78.6511 11.9989 78.4375 11.9989C78.3307 12.1057 73.8448 12.1057 73.8448 12.1057Z" fill="white"/>
<path fill-rule="evenodd" clip-rule="evenodd" d="M63.6981 7.94141C63.6981 7.94141 63.8049 14.7771 63.8049 17.8745C63.8049 18.9426 63.6981 19.9039 63.3777 20.8652C62.8436 22.3605 61.9892 23.5354 60.6007 24.3898C59.5326 25.1375 58.3577 25.4579 57.076 25.7783C55.6875 26.0988 54.1922 26.0988 52.6969 25.992C51.522 25.8852 50.4539 25.6715 49.3858 25.3511C47.9973 24.8171 46.7156 24.0694 45.8612 22.7877C45.2203 21.9333 44.8999 20.972 44.6863 19.9039C44.5795 18.8358 44.5795 16.5929 44.5795 16.5929V16.3792L51.0948 16.2724C51.0948 16.2724 51.0948 16.2724 51.0948 16.6997C51.0948 17.2337 51.0948 17.7677 51.0948 18.3018C51.0948 18.729 51.2016 19.1562 51.4152 19.5835C51.6288 20.1175 52.056 20.4379 52.4833 20.6516C52.9105 20.8652 53.3377 20.972 53.765 20.972C54.4058 20.972 55.0466 20.972 55.6875 20.7584C56.542 20.4379 56.9692 19.7971 57.1828 18.8358C57.1828 18.5154 57.2896 18.3018 57.2896 17.9814C57.2896 16.3792 57.1828 12.8546 57.1828 12.8546C57.1828 12.8546 44.4727 13.0682 44.5795 13.0682C44.4727 13.0682 44.4727 8.26183 44.4727 8.26183L63.6981 7.94141Z" fill="white"/>
<path fill-rule="evenodd" clip-rule="evenodd" d="M127.249 16.1646C127.249 16.1646 132.589 7.19275 132.589 7.08594L125.112 7.19275L121.695 13.0672L118.17 7.29955L110.693 7.40636C110.693 7.51317 116.247 16.3782 116.247 16.3782L110.8 25.2433L118.277 25.1365C118.277 25.1365 121.374 20.0097 121.695 19.4757C122.015 20.0097 125.219 25.1365 125.219 25.0297L132.696 24.9229C132.909 24.9229 127.249 16.1646 127.249 16.1646Z" fill="white"/>
<path d="M90.1855 7.62035L90.3992 25.4573L108.236 25.2437L107.916 7.40674L90.1855 7.62035ZM102.255 19.476L96.1668 19.5828L96.06 13.4948L102.148 13.388L102.255 19.476Z" fill="white"/>
<path d="M12.268 1H25.3666C28.2062 1 30.5878 3.28997 30.5878 6.22113V19.3198C30.5878 22.1593 28.2978 24.5409 25.3666 24.5409H12.268C9.42845 24.5409 7.04688 22.2509 7.04688 19.3198V6.22113C7.04687 3.28997 9.42845 1 12.268 1Z" fill="#FC3B00" stroke="#FC3B00" stroke-width="2" stroke-miterlimit="10"/>
<path d="M6.22113 7.0459H19.3198C22.1593 7.0459 24.5409 9.33587 24.5409 12.267V25.3657C24.5409 28.2052 22.2509 30.5868 19.3198 30.5868H6.22113C3.38157 30.5868 1 28.2968 1 25.3657V12.267C1 9.42747 3.28997 7.0459 6.22113 7.0459Z" fill="white" stroke="white" stroke-width="2" stroke-miterlimit="10"/>
</svg>
