<svg width="13" height="12" viewBox="0 0 13 12" fill="none" xmlns="http://www.w3.org/2000/svg">
<path d="M0.4375 2.35938C0.309896 2.35938 0.200521 2.32292 0.109375 2.25C0.0364583 2.15885 0 2.04948 0 1.92188V0.828125C0 0.700521 0.0364583 0.60026 0.109375 0.527344C0.200521 0.436198 0.309896 0.390625 0.4375 0.390625H11.8125C11.9401 0.390625 12.0404 0.436198 12.1133 0.527344C12.2044 0.60026 12.25 0.700521 12.25 0.828125V1.92188C12.25 2.04948 12.2044 2.15885 12.1133 2.25C12.0404 2.32292 11.9401 2.35938 11.8125 2.35938H0.4375ZM0.4375 6.73438C0.309896 6.73438 0.200521 6.69792 0.109375 6.625C0.0364583 6.53385 0 6.42448 0 6.29688V5.20312C0 5.07552 0.0364583 4.97526 0.109375 4.90234C0.200521 4.8112 0.309896 4.76562 0.4375 4.76562H11.8125C11.9401 4.76562 12.0404 4.8112 12.1133 4.90234C12.2044 4.97526 12.25 5.07552 12.25 5.20312V6.29688C12.25 6.42448 12.2044 6.53385 12.1133 6.625C12.0404 6.69792 11.9401 6.73438 11.8125 6.73438H0.4375ZM0.4375 11.1094C0.309896 11.1094 0.200521 11.0729 0.109375 11C0.0364583 10.9089 0 10.7995 0 10.6719V9.57812C0 9.45052 0.0364583 9.35026 0.109375 9.27734C0.200521 9.1862 0.309896 9.14062 0.4375 9.14062H11.8125C11.9401 9.14062 12.0404 9.1862 12.1133 9.27734C12.2044 9.35026 12.25 9.45052 12.25 9.57812V10.6719C12.25 10.7995 12.2044 10.9089 12.1133 11C12.0404 11.0729 11.9401 11.1094 11.8125 11.1094H0.4375Z" fill="#FC3B00"/>
</svg>
